# Blender 4.0.2
# www.blender.org
mtllib colliderForMapKaplan.mtl
g Ground_Color_V3.030_Ground_Color_V3.030
g Ground_Color_V3.031_Ground_Color_V3.031
v -0.211118 0.000000 0.444190
v -0.341557 0.000000 0.444190
v -0.211118 0.300000 0.444190
v -0.341557 0.300000 0.444190
vn -0.0000 -0.0000 -1.0000
vt 0.158443 0.055810
vt 0.288881 0.055810
s 0
f 2/1/1 4/1/1 3/2/1 1/2/1
g Ground_Color_V3.032_Ground_Color_V3.032
v -0.211118 0.000000 0.444190
v -0.211118 0.000000 0.337372
v -0.211118 0.300000 0.444190
v -0.211118 0.300000 0.337372
vn -1.0000 -0.0000 -0.0000
vt 0.288881 0.055810
vt 0.288881 0.162628
s 0
usemtl Ground_Color_V3
f 5/3/2 7/3/2 8/4/2 6/4/2
g Ground_Color_V3.033_Ground_Color_V3.033
v -0.211118 0.000000 0.337372
v -0.112360 0.000000 0.337372
v -0.211118 0.300000 0.337372
v -0.112360 0.300000 0.337372
vn -0.0000 -0.0000 -1.0000
vt 0.288881 0.162628
vt 0.387640 0.162628
s 0
usemtl Ground_Color_V3
f 9/5/3 11/5/3 12/6/3 10/6/3
g Ground_Color_V3.034_Ground_Color_V3.034
v -0.112360 0.000000 0.337372
v -0.112360 0.000000 0.209920
v -0.112360 0.300000 0.337372
v -0.112360 0.300000 0.209920
vn 1.0000 -0.0000 -0.0000
vt 0.387640 0.162628
vt 0.387640 0.290080
s 0
usemtl Ground_Color_V3
f 13/7/4 14/8/4 16/8/4 15/7/4
g Ground_Color_V3.035_Ground_Color_V3.035
v -0.002209 0.000000 0.209920
v -0.112360 0.000000 0.209920
v -0.002209 0.300000 0.209920
v -0.112360 0.300000 0.209920
vn -0.0000 -0.0000 -1.0000
vt 0.387640 0.290080
vt 0.497791 0.290080
s 0
usemtl Ground_Color_V3
f 18/9/5 20/9/5 19/10/5 17/10/5
g Ground_Color_V3.036_Ground_Color_V3.036
v -0.002209 0.000000 0.209920
v -0.002209 0.000000 0.052208
v -0.002209 0.300000 0.209920
v -0.002209 0.300000 0.052208
vn -1.0000 -0.0000 -0.0000
vt 0.497791 0.290080
vt 0.497791 0.447792
s 0
usemtl Ground_Color_V3
f 21/11/6 23/11/6 24/12/6 22/12/6
g Ground_Color_V3.037_Ground_Color_V3.037
v -0.002209 0.000000 0.052208
v 0.119145 0.000000 0.052208
v -0.002209 0.300000 0.052208
v 0.119145 0.300000 0.052208
vn -0.0000 -0.0000 1.0000
vt 0.497791 0.447792
vt 0.619145 0.447792
s 0
usemtl Ground_Color_V3
f 25/13/7 26/14/7 28/14/7 27/13/7
g Ground_Color_V3.038_Ground_Color_V3.038
v 0.119145 0.000000 -0.139468
v 0.119145 0.000000 0.052208
v 0.119145 0.300000 0.052208
v 0.119145 0.300000 -0.139468
vn -1.0000 -0.0000 -0.0000
vt 0.619145 0.447792
vt 0.619145 0.639468
s 0
usemtl Ground_Color_V3
f 30/15/8 31/15/8 32/16/8 29/16/8
g Ground_Color_V3.039_Ground_Color_V3.039
v 0.119145 0.000000 -0.139468
v 0.192876 0.000000 -0.139468
v 0.119145 0.300000 -0.139468
v 0.192876 0.300000 -0.139468
vn -0.0000 -0.0000 -1.0000
vt 0.619145 0.639468
vt 0.692876 0.639468
s 0
usemtl Ground_Color_V3
f 33/17/9 35/17/9 36/18/9 34/18/9
g Ground_Color_V3.040_Ground_Color_V3.040
v 0.192876 0.000000 -0.335063
v 0.192876 0.000000 -0.139468
v 0.192876 0.300000 -0.335063
v 0.192876 0.300000 -0.139468
vn 1.0000 -0.0000 -0.0000
vt 0.692876 0.639468
vt 0.692876 0.835063
s 0
usemtl Ground_Color_V3
f 38/19/10 37/20/10 39/20/10 40/19/10
g Ground_Color_V3.041_Ground_Color_V3.041
v 0.281990 0.000000 -0.335063
v 0.192876 0.000000 -0.335063
v 0.281990 0.300000 -0.335063
v 0.192876 0.300000 -0.335063
vn -0.0000 -0.0000 -1.0000
vt 0.692876 0.835063
vt 0.781990 0.835063
s 0
usemtl Ground_Color_V3
f 42/21/11 44/21/11 43/22/11 41/22/11
g Ground_Color_V3.042_Ground_Color_V3.042
v 0.281990 0.000000 -0.450000
v 0.281990 0.000000 -0.335063
v 0.281990 0.300000 -0.450000
v 0.281990 0.300000 -0.335063
vn 1.0000 -0.0000 -0.0000
vt 0.781990 0.835063
vt 0.781990 0.950000
s 0
usemtl Ground_Color_V3
f 46/23/12 45/24/12 47/24/12 48/23/12
g Ground_Color_V3.043_Ground_Color_V3.043
v 0.266607 0.000000 -0.450000
v 0.281990 0.000000 -0.450000
v 0.281990 0.300000 -0.450000
v 0.266607 0.300000 -0.450000
vn -0.0000 -0.0000 1.0000
vt 0.781990 0.950000
vt 0.766607 0.950000
s 0
usemtl Ground_Color_V3
f 50/25/13 51/25/13 52/26/13 49/26/13
g Ground_Color_V3.044_Ground_Color_V3.044
v 0.266607 0.000000 -0.450000
v 0.266607 0.000000 -0.351640
v 0.266607 0.300000 -0.450000
v 0.266607 0.300000 -0.351640
vn 1.0000 -0.0000 -0.0000
vt 0.766607 0.950000
vt 0.766607 0.851640
s 0
usemtl Ground_Color_V3
f 53/27/14 55/27/14 56/28/14 54/28/14
g Ground_Color_V3.045_Ground_Color_V3.045
v 0.266607 0.000000 -0.351640
v 0.177382 0.000000 -0.351640
v 0.266607 0.300000 -0.351640
v 0.177382 0.300000 -0.351640
vn -0.0000 -0.0000 1.0000
vt 0.766607 0.851640
vt 0.677382 0.851640
s 0
usemtl Ground_Color_V3
f 57/29/15 59/29/15 60/30/15 58/30/15
g Ground_Color_V3.046_Ground_Color_V3.046
v 0.177382 0.000000 -0.157500
v 0.177382 0.000000 -0.351640
v 0.177382 0.300000 -0.157500
v 0.177382 0.300000 -0.351640
vn 1.0000 -0.0000 -0.0000
vt 0.677382 0.851640
vt 0.677382 0.657500
s 0
usemtl Ground_Color_V3
f 62/31/16 64/31/16 63/32/16 61/32/16
g Ground_Color_V3.047_Ground_Color_V3.047
v 0.099176 0.000000 -0.157500
v 0.177382 0.000000 -0.157500
v 0.177382 0.300000 -0.157500
v 0.099176 0.300000 -0.157500
vn -0.0000 -0.0000 1.0000
vt 0.677382 0.657500
vt 0.599176 0.657500
s 0
usemtl Ground_Color_V3
f 66/33/17 67/33/17 68/34/17 65/34/17
g Ground_Color_V3.048_Ground_Color_V3.048
v 0.099176 0.000000 -0.157500
v 0.099176 0.000000 0.034101
v 0.099176 0.300000 0.034101
v 0.099176 0.300000 -0.157500
vn 1.0000 -0.0000 -0.0000
vt 0.599176 0.657500
vt 0.599176 0.465899
s 0
usemtl Ground_Color_V3
f 69/35/18 72/35/18 71/36/18 70/36/18
g Ground_Color_V3.049_Ground_Color_V3.049
v -0.002209 0.000000 0.034101
v 0.099176 0.000000 0.034101
v 0.099176 0.300000 0.034101
v -0.002209 0.300000 0.034101
vn -0.0000 -0.0000 1.0000
vt 0.599176 0.465899
vt 0.497791 0.465899
s 0
usemtl Ground_Color_V3
f 74/37/19 75/37/19 76/38/19 73/38/19
g Ground_Color_V3.050_Ground_Color_V3.050
v -0.020250 0.000000 0.013365
v -0.002209 0.000000 0.013365
v -0.002209 0.300000 0.013365
v -0.020250 0.300000 0.013365
vn -0.0000 -0.0000 1.0000
vt 0.497791 0.486635
vt 0.479750 0.486635
s 0
usemtl Ground_Color_V3
f 78/39/20 79/39/20 80/40/20 77/40/20
g Ground_Color_V3.051_Ground_Color_V3.051
v -0.002209 0.000000 0.034101
v -0.002209 0.000000 0.013365
v -0.002209 0.300000 0.034101
v -0.002209 0.300000 0.013365
vn -1.0000 -0.0000 -0.0000
vt 0.497791 0.465899
vt 0.497791 0.486635
s 0
usemtl Ground_Color_V3
f 81/41/21 83/41/21 84/42/21 82/42/21
g Ground_Color_V3.052_Ground_Color_V3.052
v -0.020250 0.000000 0.034101
v -0.020250 0.000000 0.013365
v -0.020250 0.300000 0.034101
v -0.020250 0.300000 0.013365
vn 1.0000 -0.0000 -0.0000
vt 0.479750 0.486635
vt 0.479750 0.465899
s 0
usemtl Ground_Color_V3
f 86/43/22 88/43/22 87/44/22 85/44/22
g Ground_Color_V3.053_Ground_Color_V3.053
v -0.020250 0.000000 0.192205
v -0.020250 0.000000 0.034101
v -0.020250 0.300000 0.034101
v -0.020250 0.300000 0.192205
vn 1.0000 -0.0000 -0.0000
vt 0.479750 0.465899
vt 0.479750 0.307795
s 0
usemtl Ground_Color_V3
f 90/45/23 91/45/23 92/46/23 89/46/23
g Ground_Color_V3.054_Ground_Color_V3.054
v -0.020250 0.000000 0.192205
v -0.128939 0.000000 0.192205
v -0.020250 0.300000 0.192205
v -0.128939 0.300000 0.192205
vn -0.0000 -0.0000 1.0000
vt 0.479750 0.307795
vt 0.371061 0.307795
s 0
usemtl Ground_Color_V3
f 93/47/24 95/47/24 96/48/24 94/48/24
g Ground_Color_V3.055_Ground_Color_V3.055
v -0.128939 0.000000 0.321730
v -0.128939 0.000000 0.192205
v -0.128939 0.300000 0.321730
v -0.128939 0.300000 0.192205
vn 1.0000 -0.0000 -0.0000
vt 0.371061 0.307795
vt 0.371061 0.178270
s 0
usemtl Ground_Color_V3
f 98/49/25 100/49/25 99/50/25 97/50/25
g Ground_Color_V3.056_Ground_Color_V3.056
v -0.227331 0.000000 0.321730
v -0.128939 0.000000 0.321730
v -0.128939 0.300000 0.321730
v -0.227331 0.300000 0.321730
vn -0.0000 -0.0000 1.0000
vt 0.371061 0.178270
vt 0.272669 0.178270
s 0
usemtl Ground_Color_V3
f 102/51/26 103/51/26 104/52/26 101/52/26
g Ground_Color_V3.057_Ground_Color_V3.057
v -0.227331 0.000000 0.428545
v -0.227331 0.000000 0.321730
v -0.227331 0.300000 0.428545
v -0.227331 0.300000 0.321730
vn 1.0000 -0.0000 -0.0000
vt 0.272669 0.178270
vt 0.272669 0.071455
s 0
usemtl Ground_Color_V3
f 106/53/27 108/53/27 107/54/27 105/54/27
g Ground_Color_V3.058_Ground_Color_V3.058
v -0.341557 0.000000 0.428545
v -0.227331 0.000000 0.428545
v -0.227331 0.300000 0.428545
v -0.341557 0.300000 0.428545
vn -0.0000 -0.0000 1.0000
vt 0.272669 0.071455
vt 0.158443 0.071455
s 0
usemtl Ground_Color_V3
f 110/55/28 111/55/28 112/56/28 109/56/28
g Ground_Color_V3.059_Ground_Color_V3.059
v -0.341557 0.000000 0.444190
v -0.341557 0.000000 0.428545
v -0.341557 0.300000 0.428545
v -0.341557 0.300000 0.444190
vn -1.0000 -0.0000 -0.0000
vt 0.158443 0.071455
vt 0.158443 0.055810
s 0
usemtl Ground_Color_V3
f 114/57/29 113/58/29 116/58/29 115/57/29
